<svg xmlns="http://www.w3.org/2000/svg" xml:space="preserve" id="_x32_" width="800" height="800" version="1.1" viewBox="0 0 512 512"><style>.st0{fill:#fff}</style><path d="M290.67 135.43a67.82 67.82 0 0 0 61.66-73.5 67.85 67.85 0 1 0-61.66 73.5zM311.31 406.35c-16.13 5.91-43.32 22.55-43.32 22.55s20.61-95.3 21.46-99.45c8.71-41.83 33.47-100.86-.06-136.74-23.35-24.94-53.37-18.23-79.82 7.08-17.47 16.7-26.73 27.37-42.91 45.32-6.55 7.27-9.03 14.06-5.93 24.71 3.33 11.52 16.8 17.23 28.7 12.88 16.14-5.9 43.3-22.54 43.3-22.54s-12.6 58-18.87 87c-.87 4.14-36.06 113.3-2.5 149.18 23.35 24.95 53.34 18.23 79.82-7.06 17.46-16.7 26.73-27.38 42.9-45.34 6.56-7.26 9.01-14.05 5.94-24.7-3.36-11.5-16.8-17.23-28.71-12.89z" class="st0"/></svg>