<?xml version="1.0" standalone="no"?>
<svg version="1.0" xmlns="http://www.w3.org/2000/svg"
 width="276.000000pt" height="224.000000pt" viewBox="0 0 276.000000 224.000000">
<g transform="translate(0.000000,224.000000) scale(0.100000,-0.100000)"
fill="#000000" stroke="none">
<path d="M1005 2172 c-41 -26 -55 -45 -61 -84 -11 -75 83 -144 165 -119 57 17
91 55 91 103 0 21 -7 50 -16 63 -35 53 -123 71 -179 37z"/>
<path d="M433 1810 c-117 -24 -199 -112 -219 -237 -6 -40 -8 -42 -55 -53 -54
-13 -68 -26 -86 -79 -16 -46 -17 -245 -1 -308 28 -118 40 -153 71 -203 138
-231 477 -171 578 103 21 55 23 57 58 57 47 1 138 23 178 44 48 24 53 21 53
-35 0 -49 -3 -55 -57 -113 -170 -183 -280 -402 -318 -634 -34 -209 48 -315
218 -283 231 44 355 329 374 858 5 158 9 195 22 207 35 31 244 86 255 67 3 -4
0 -79 -6 -167 -6 -88 -8 -172 -4 -187 14 -59 111 -85 173 -47 47 28 58 52 87
190 68 314 144 519 229 616 46 52 74 55 97 9 21 -41 20 -198 -3 -504 -23 -309
-13 -421 50 -521 48 -78 165 -105 241 -56 104 67 185 205 267 456 26 80 51
153 56 162 15 29 11 118 -5 118 -23 0 -34 -22 -71 -146 -78 -259 -166 -435
-232 -463 -39 -16 -77 1 -95 43 -17 41 -14 237 6 423 17 154 22 364 11 428
-12 63 -45 124 -83 153 -47 36 -141 43 -198 14 -74 -38 -147 -139 -209 -292
-14 -36 -33 -78 -41 -95 -14 -30 -14 -30 -9 20 10 96 25 306 25 347 0 84 -105
128 -187 78 -43 -26 -51 -59 -72 -301 -9 -109 -19 -201 -22 -203 -3 -3 -34
-10 -70 -15 -35 -5 -91 -19 -124 -30 -33 -12 -64 -23 -70 -24 -5 -1 -13 40
-17 93 -33 450 -38 482 -71 505 -50 35 -187 4 -187 -42 0 -10 7 -72 14 -138 8
-66 18 -175 22 -243 6 -120 6 -123 -17 -148 -13 -14 -40 -34 -61 -45 -42 -22
-143 -40 -156 -27 -4 4 -4 43 1 86 11 98 2 262 -18 326 -51 164 -186 263 -322
236z m53 -97 c57 -37 106 -168 124 -331 11 -99 6 -187 -10 -197 -13 -8 -107
32 -159 67 -96 67 -141 122 -141 174 0 16 -7 42 -15 58 -20 38 -19 65 5 129
21 57 46 86 95 112 32 17 63 13 101 -12z m-145 -463 c44 -40 184 -120 211
-120 8 0 22 -6 32 -13 17 -12 17 -17 3 -63 -41 -140 -88 -194 -166 -194 -54 0
-79 19 -107 85 -20 46 -35 215 -27 293 3 28 7 52 8 52 1 0 22 -18 46 -40z
m664 -407 c-25 -401 -98 -635 -215 -688 l-42 -19 -24 27 c-57 67 -20 310 77
501 63 126 173 276 202 276 4 0 5 -44 2 -97z"/>
</g>
</svg>
